<svg class="rich-terminal" viewBox="0 0 1214 782.0" xmlns="http://www.w3.org/2000/svg">
    <!-- Generated with Rich https://www.textualize.io -->
    <style>

    @font-face {
        font-family: "Fira Code";
        src: local("FiraCode-Regular"),
                url("https://cdnjs.cloudflare.com/ajax/libs/firacode/6.2.0/woff2/FiraCode-Regular.woff2") format("woff2"),
                url("https://cdnjs.cloudflare.com/ajax/libs/firacode/6.2.0/woff/FiraCode-Regular.woff") format("woff");
        font-style: normal;
        font-weight: 400;
    }
    @font-face {
        font-family: "Fira Code";
        src: local("FiraCode-Bold"),
                url("https://cdnjs.cloudflare.com/ajax/libs/firacode/6.2.0/woff2/FiraCode-Bold.woff2") format("woff2"),
                url("https://cdnjs.cloudflare.com/ajax/libs/firacode/6.2.0/woff/FiraCode-Bold.woff") format("woff");
        font-style: bold;
        font-weight: 700;
    }

    .terminal-1915678939-matrix {
        font-family: Fira Code, monospace;
        font-size: 20px;
        line-height: 24.4px;
        font-variant-east-asian: full-width;
    }

    .terminal-1915678939-title {
        font-size: 18px;
        font-weight: bold;
        font-family: arial;
    }

    .terminal-1915678939-r1 { fill: #c5c8c6 }
.terminal-1915678939-r2 { fill: #e0e0e0 }
.terminal-1915678939-r3 { fill: #e2c598 }
.terminal-1915678939-r4 { fill: #e0d4c1 }
.terminal-1915678939-r5 { fill: #1b1b1b }
.terminal-1915678939-r6 { fill: #e1e1e1 }
.terminal-1915678939-r7 { fill: #9d9d9d }
.terminal-1915678939-r8 { fill: #fea62b }
.terminal-1915678939-r9 { fill: #e0e0e0;font-weight: bold }
.terminal-1915678939-r10 { fill: #ddedf9;font-weight: bold }
.terminal-1915678939-r11 { fill: #a0a0a0 }
.terminal-1915678939-r12 { fill: #ffa62b;font-weight: bold }
    </style>

    <defs>
    <clipPath id="terminal-1915678939-clip-terminal">
      <rect x="0" y="0" width="1194.6" height="731.0" />
    </clipPath>
    <clipPath id="terminal-1915678939-line-0">
    <rect x="0" y="1.5" width="1195.6" height="24.65"/>
            </clipPath>
<clipPath id="terminal-1915678939-line-1">
    <rect x="0" y="25.9" width="1195.6" height="24.65"/>
            </clipPath>
<clipPath id="terminal-1915678939-line-2">
    <rect x="0" y="50.3" width="1195.6" height="24.65"/>
            </clipPath>
<clipPath id="terminal-1915678939-line-3">
    <rect x="0" y="74.7" width="1195.6" height="24.65"/>
            </clipPath>
<clipPath id="terminal-1915678939-line-4">
    <rect x="0" y="99.1" width="1195.6" height="24.65"/>
            </clipPath>
<clipPath id="terminal-1915678939-line-5">
    <rect x="0" y="123.5" width="1195.6" height="24.65"/>
            </clipPath>
<clipPath id="terminal-1915678939-line-6">
    <rect x="0" y="147.9" width="1195.6" height="24.65"/>
            </clipPath>
<clipPath id="terminal-1915678939-line-7">
    <rect x="0" y="172.3" width="1195.6" height="24.65"/>
            </clipPath>
<clipPath id="terminal-1915678939-line-8">
    <rect x="0" y="196.7" width="1195.6" height="24.65"/>
            </clipPath>
<clipPath id="terminal-1915678939-line-9">
    <rect x="0" y="221.1" width="1195.6" height="24.65"/>
            </clipPath>
<clipPath id="terminal-1915678939-line-10">
    <rect x="0" y="245.5" width="1195.6" height="24.65"/>
            </clipPath>
<clipPath id="terminal-1915678939-line-11">
    <rect x="0" y="269.9" width="1195.6" height="24.65"/>
            </clipPath>
<clipPath id="terminal-1915678939-line-12">
    <rect x="0" y="294.3" width="1195.6" height="24.65"/>
            </clipPath>
<clipPath id="terminal-1915678939-line-13">
    <rect x="0" y="318.7" width="1195.6" height="24.65"/>
            </clipPath>
<clipPath id="terminal-1915678939-line-14">
    <rect x="0" y="343.1" width="1195.6" height="24.65"/>
            </clipPath>
<clipPath id="terminal-1915678939-line-15">
    <rect x="0" y="367.5" width="1195.6" height="24.65"/>
            </clipPath>
<clipPath id="terminal-1915678939-line-16">
    <rect x="0" y="391.9" width="1195.6" height="24.65"/>
            </clipPath>
<clipPath id="terminal-1915678939-line-17">
    <rect x="0" y="416.3" width="1195.6" height="24.65"/>
            </clipPath>
<clipPath id="terminal-1915678939-line-18">
    <rect x="0" y="440.7" width="1195.6" height="24.65"/>
            </clipPath>
<clipPath id="terminal-1915678939-line-19">
    <rect x="0" y="465.1" width="1195.6" height="24.65"/>
            </clipPath>
<clipPath id="terminal-1915678939-line-20">
    <rect x="0" y="489.5" width="1195.6" height="24.65"/>
            </clipPath>
<clipPath id="terminal-1915678939-line-21">
    <rect x="0" y="513.9" width="1195.6" height="24.65"/>
            </clipPath>
<clipPath id="terminal-1915678939-line-22">
    <rect x="0" y="538.3" width="1195.6" height="24.65"/>
            </clipPath>
<clipPath id="terminal-1915678939-line-23">
    <rect x="0" y="562.7" width="1195.6" height="24.65"/>
            </clipPath>
<clipPath id="terminal-1915678939-line-24">
    <rect x="0" y="587.1" width="1195.6" height="24.65"/>
            </clipPath>
<clipPath id="terminal-1915678939-line-25">
    <rect x="0" y="611.5" width="1195.6" height="24.65"/>
            </clipPath>
<clipPath id="terminal-1915678939-line-26">
    <rect x="0" y="635.9" width="1195.6" height="24.65"/>
            </clipPath>
<clipPath id="terminal-1915678939-line-27">
    <rect x="0" y="660.3" width="1195.6" height="24.65"/>
            </clipPath>
<clipPath id="terminal-1915678939-line-28">
    <rect x="0" y="684.7" width="1195.6" height="24.65"/>
            </clipPath>
    </defs>

    <rect fill="#292929" stroke="rgba(255,255,255,0.35)" stroke-width="1" x="1" y="1" width="1212" height="780" rx="8"/><text class="terminal-1915678939-title" fill="#c5c8c6" text-anchor="middle" x="606" y="27">whooing-tui&#160;—&#160;거래&#160;목록&#160;(메인&#160;화면)</text>
            <g transform="translate(26,22)">
            <circle cx="0" cy="0" r="7" fill="#ff5f57"/>
            <circle cx="22" cy="0" r="7" fill="#febc2e"/>
            <circle cx="44" cy="0" r="7" fill="#28c840"/>
            </g>
        
    <g transform="translate(9, 41)" clip-path="url(#terminal-1915678939-clip-terminal)">
    <rect fill="#e7920d" x="0" y="1.5" width="12.2" height="24.65" shape-rendering="crispEdges"/><rect fill="#e7920d" x="12.2" y="1.5" width="12.2" height="24.65" shape-rendering="crispEdges"/><rect fill="#e7920d" x="24.4" y="1.5" width="61" height="24.65" shape-rendering="crispEdges"/><rect fill="#e7920d" x="85.4" y="1.5" width="12.2" height="24.65" shape-rendering="crispEdges"/><rect fill="#e7920d" x="97.6" y="1.5" width="256.2" height="24.65" shape-rendering="crispEdges"/><rect fill="#e7920d" x="353.8" y="1.5" width="134.2" height="24.65" shape-rendering="crispEdges"/><rect fill="#e7920d" x="488" y="1.5" width="36.6" height="24.65" shape-rendering="crispEdges"/><rect fill="#e7920d" x="524.6" y="1.5" width="292.8" height="24.65" shape-rendering="crispEdges"/><rect fill="#e7920d" x="817.4" y="1.5" width="256.2" height="24.65" shape-rendering="crispEdges"/><rect fill="#e59416" x="1073.6" y="1.5" width="12.2" height="24.65" shape-rendering="crispEdges"/><rect fill="#e59416" x="1085.8" y="1.5" width="97.6" height="24.65" shape-rendering="crispEdges"/><rect fill="#e59416" x="1183.4" y="1.5" width="12.2" height="24.65" shape-rendering="crispEdges"/><rect fill="#1b1b1b" x="0" y="25.9" width="12.2" height="24.65" shape-rendering="crispEdges"/><rect fill="#e1e1e1" x="12.2" y="25.9" width="73.2" height="24.65" shape-rendering="crispEdges"/><rect fill="#1b1b1b" x="85.4" y="25.9" width="366" height="24.65" shape-rendering="crispEdges"/><rect fill="#1b1b1b" x="451.4" y="25.9" width="61" height="24.65" shape-rendering="crispEdges"/><rect fill="#1b1b1b" x="512.4" y="25.9" width="671" height="24.65" shape-rendering="crispEdges"/><rect fill="#1b1b1b" x="1183.4" y="25.9" width="12.2" height="24.65" shape-rendering="crispEdges"/><rect fill="#272727" x="0" y="50.3" width="12.2" height="24.65" shape-rendering="crispEdges"/><rect fill="#272727" x="12.2" y="50.3" width="1171.2" height="24.65" shape-rendering="crispEdges"/><rect fill="#272727" x="1183.4" y="50.3" width="12.2" height="24.65" shape-rendering="crispEdges"/><rect fill="#272727" x="0" y="74.7" width="12.2" height="24.65" shape-rendering="crispEdges"/><rect fill="#2d3740" x="12.2" y="74.7" width="146.4" height="24.65" shape-rendering="crispEdges"/><rect fill="#2d3740" x="158.6" y="74.7" width="109.8" height="24.65" shape-rendering="crispEdges"/><rect fill="#2d3740" x="268.4" y="74.7" width="170.8" height="24.65" shape-rendering="crispEdges"/><rect fill="#2d3740" x="439.2" y="74.7" width="122" height="24.65" shape-rendering="crispEdges"/><rect fill="#2d3740" x="561.2" y="74.7" width="268.4" height="24.65" shape-rendering="crispEdges"/><rect fill="#2d3740" x="829.6" y="74.7" width="73.2" height="24.65" shape-rendering="crispEdges"/><rect fill="#2d3740" x="902.8" y="74.7" width="280.6" height="24.65" shape-rendering="crispEdges"/><rect fill="#272727" x="1183.4" y="74.7" width="12.2" height="24.65" shape-rendering="crispEdges"/><rect fill="#272727" x="0" y="99.1" width="12.2" height="24.65" shape-rendering="crispEdges"/><rect fill="#0178d4" x="12.2" y="99.1" width="146.4" height="24.65" shape-rendering="crispEdges"/><rect fill="#0178d4" x="158.6" y="99.1" width="109.8" height="24.65" shape-rendering="crispEdges"/><rect fill="#0178d4" x="268.4" y="99.1" width="170.8" height="24.65" shape-rendering="crispEdges"/><rect fill="#0178d4" x="439.2" y="99.1" width="122" height="24.65" shape-rendering="crispEdges"/><rect fill="#0178d4" x="561.2" y="99.1" width="268.4" height="24.65" shape-rendering="crispEdges"/><rect fill="#0178d4" x="829.6" y="99.1" width="73.2" height="24.65" shape-rendering="crispEdges"/><rect fill="#0178d4" x="902.8" y="99.1" width="280.6" height="24.65" shape-rendering="crispEdges"/><rect fill="#272727" x="1183.4" y="99.1" width="12.2" height="24.65" shape-rendering="crispEdges"/><rect fill="#272727" x="0" y="123.5" width="12.2" height="24.65" shape-rendering="crispEdges"/><rect fill="#272727" x="12.2" y="123.5" width="146.4" height="24.65" shape-rendering="crispEdges"/><rect fill="#272727" x="158.6" y="123.5" width="109.8" height="24.65" shape-rendering="crispEdges"/><rect fill="#272727" x="268.4" y="123.5" width="170.8" height="24.65" shape-rendering="crispEdges"/><rect fill="#272727" x="439.2" y="123.5" width="122" height="24.65" shape-rendering="crispEdges"/><rect fill="#272727" x="561.2" y="123.5" width="268.4" height="24.65" shape-rendering="crispEdges"/><rect fill="#272727" x="829.6" y="123.5" width="73.2" height="24.65" shape-rendering="crispEdges"/><rect fill="#272727" x="902.8" y="123.5" width="280.6" height="24.65" shape-rendering="crispEdges"/><rect fill="#272727" x="1183.4" y="123.5" width="12.2" height="24.65" shape-rendering="crispEdges"/><rect fill="#272727" x="0" y="147.9" width="12.2" height="24.65" shape-rendering="crispEdges"/><rect fill="#1c1c1c" x="12.2" y="147.9" width="146.4" height="24.65" shape-rendering="crispEdges"/><rect fill="#1c1c1c" x="158.6" y="147.9" width="109.8" height="24.65" shape-rendering="crispEdges"/><rect fill="#1c1c1c" x="268.4" y="147.9" width="170.8" height="24.65" shape-rendering="crispEdges"/><rect fill="#1c1c1c" x="439.2" y="147.9" width="122" height="24.65" shape-rendering="crispEdges"/><rect fill="#1c1c1c" x="561.2" y="147.9" width="268.4" height="24.65" shape-rendering="crispEdges"/><rect fill="#1c1c1c" x="829.6" y="147.9" width="73.2" height="24.65" shape-rendering="crispEdges"/><rect fill="#1c1c1c" x="902.8" y="147.9" width="280.6" height="24.65" shape-rendering="crispEdges"/><rect fill="#272727" x="1183.4" y="147.9" width="12.2" height="24.65" shape-rendering="crispEdges"/><rect fill="#272727" x="0" y="172.3" width="12.2" height="24.65" shape-rendering="crispEdges"/><rect fill="#272727" x="12.2" y="172.3" width="146.4" height="24.65" shape-rendering="crispEdges"/><rect fill="#272727" x="158.6" y="172.3" width="109.8" height="24.65" shape-rendering="crispEdges"/><rect fill="#272727" x="268.4" y="172.3" width="170.8" height="24.65" shape-rendering="crispEdges"/><rect fill="#272727" x="439.2" y="172.3" width="122" height="24.65" shape-rendering="crispEdges"/><rect fill="#272727" x="561.2" y="172.3" width="268.4" height="24.65" shape-rendering="crispEdges"/><rect fill="#272727" x="829.6" y="172.3" width="73.2" height="24.65" shape-rendering="crispEdges"/><rect fill="#272727" x="902.8" y="172.3" width="280.6" height="24.65" shape-rendering="crispEdges"/><rect fill="#272727" x="1183.4" y="172.3" width="12.2" height="24.65" shape-rendering="crispEdges"/><rect fill="#272727" x="0" y="196.7" width="12.2" height="24.65" shape-rendering="crispEdges"/><rect fill="#1c1c1c" x="12.2" y="196.7" width="146.4" height="24.65" shape-rendering="crispEdges"/><rect fill="#1c1c1c" x="158.6" y="196.7" width="109.8" height="24.65" shape-rendering="crispEdges"/><rect fill="#1c1c1c" x="268.4" y="196.7" width="170.8" height="24.65" shape-rendering="crispEdges"/><rect fill="#1c1c1c" x="439.2" y="196.7" width="122" height="24.65" shape-rendering="crispEdges"/><rect fill="#1c1c1c" x="561.2" y="196.7" width="268.4" height="24.65" shape-rendering="crispEdges"/><rect fill="#1c1c1c" x="829.6" y="196.7" width="73.2" height="24.65" shape-rendering="crispEdges"/><rect fill="#1c1c1c" x="902.8" y="196.7" width="280.6" height="24.65" shape-rendering="crispEdges"/><rect fill="#272727" x="1183.4" y="196.7" width="12.2" height="24.65" shape-rendering="crispEdges"/><rect fill="#272727" x="0" y="221.1" width="12.2" height="24.65" shape-rendering="crispEdges"/><rect fill="#272727" x="12.2" y="221.1" width="146.4" height="24.65" shape-rendering="crispEdges"/><rect fill="#272727" x="158.6" y="221.1" width="109.8" height="24.65" shape-rendering="crispEdges"/><rect fill="#272727" x="268.4" y="221.1" width="170.8" height="24.65" shape-rendering="crispEdges"/><rect fill="#272727" x="439.2" y="221.1" width="122" height="24.65" shape-rendering="crispEdges"/><rect fill="#272727" x="561.2" y="221.1" width="268.4" height="24.65" shape-rendering="crispEdges"/><rect fill="#272727" x="829.6" y="221.1" width="73.2" height="24.65" shape-rendering="crispEdges"/><rect fill="#272727" x="902.8" y="221.1" width="280.6" height="24.65" shape-rendering="crispEdges"/><rect fill="#272727" x="1183.4" y="221.1" width="12.2" height="24.65" shape-rendering="crispEdges"/><rect fill="#272727" x="0" y="245.5" width="12.2" height="24.65" shape-rendering="crispEdges"/><rect fill="#1c1c1c" x="12.2" y="245.5" width="146.4" height="24.65" shape-rendering="crispEdges"/><rect fill="#1c1c1c" x="158.6" y="245.5" width="109.8" height="24.65" shape-rendering="crispEdges"/><rect fill="#1c1c1c" x="268.4" y="245.5" width="170.8" height="24.65" shape-rendering="crispEdges"/><rect fill="#1c1c1c" x="439.2" y="245.5" width="122" height="24.65" shape-rendering="crispEdges"/><rect fill="#1c1c1c" x="561.2" y="245.5" width="268.4" height="24.65" shape-rendering="crispEdges"/><rect fill="#1c1c1c" x="829.6" y="245.5" width="73.2" height="24.65" shape-rendering="crispEdges"/><rect fill="#1c1c1c" x="902.8" y="245.5" width="280.6" height="24.65" shape-rendering="crispEdges"/><rect fill="#272727" x="1183.4" y="245.5" width="12.2" height="24.65" shape-rendering="crispEdges"/><rect fill="#272727" x="0" y="269.9" width="12.2" height="24.65" shape-rendering="crispEdges"/><rect fill="#272727" x="12.2" y="269.9" width="1171.2" height="24.65" shape-rendering="crispEdges"/><rect fill="#272727" x="1183.4" y="269.9" width="12.2" height="24.65" shape-rendering="crispEdges"/><rect fill="#272727" x="0" y="294.3" width="12.2" height="24.65" shape-rendering="crispEdges"/><rect fill="#272727" x="12.2" y="294.3" width="1171.2" height="24.65" shape-rendering="crispEdges"/><rect fill="#272727" x="1183.4" y="294.3" width="12.2" height="24.65" shape-rendering="crispEdges"/><rect fill="#272727" x="0" y="318.7" width="12.2" height="24.65" shape-rendering="crispEdges"/><rect fill="#272727" x="12.2" y="318.7" width="1171.2" height="24.65" shape-rendering="crispEdges"/><rect fill="#272727" x="1183.4" y="318.7" width="12.2" height="24.65" shape-rendering="crispEdges"/><rect fill="#272727" x="0" y="343.1" width="12.2" height="24.65" shape-rendering="crispEdges"/><rect fill="#272727" x="12.2" y="343.1" width="1171.2" height="24.65" shape-rendering="crispEdges"/><rect fill="#272727" x="1183.4" y="343.1" width="12.2" height="24.65" shape-rendering="crispEdges"/><rect fill="#272727" x="0" y="367.5" width="12.2" height="24.65" shape-rendering="crispEdges"/><rect fill="#272727" x="12.2" y="367.5" width="1171.2" height="24.65" shape-rendering="crispEdges"/><rect fill="#272727" x="1183.4" y="367.5" width="12.2" height="24.65" shape-rendering="crispEdges"/><rect fill="#272727" x="0" y="391.9" width="12.2" height="24.65" shape-rendering="crispEdges"/><rect fill="#272727" x="12.2" y="391.9" width="1171.2" height="24.65" shape-rendering="crispEdges"/><rect fill="#272727" x="1183.4" y="391.9" width="12.2" height="24.65" shape-rendering="crispEdges"/><rect fill="#272727" x="0" y="416.3" width="12.2" height="24.65" shape-rendering="crispEdges"/><rect fill="#272727" x="12.2" y="416.3" width="1171.2" height="24.65" shape-rendering="crispEdges"/><rect fill="#272727" x="1183.4" y="416.3" width="12.2" height="24.65" shape-rendering="crispEdges"/><rect fill="#272727" x="0" y="440.7" width="12.2" height="24.65" shape-rendering="crispEdges"/><rect fill="#272727" x="12.2" y="440.7" width="1171.2" height="24.65" shape-rendering="crispEdges"/><rect fill="#272727" x="1183.4" y="440.7" width="12.2" height="24.65" shape-rendering="crispEdges"/><rect fill="#272727" x="0" y="465.1" width="12.2" height="24.65" shape-rendering="crispEdges"/><rect fill="#272727" x="12.2" y="465.1" width="1171.2" height="24.65" shape-rendering="crispEdges"/><rect fill="#272727" x="1183.4" y="465.1" width="12.2" height="24.65" shape-rendering="crispEdges"/><rect fill="#272727" x="0" y="489.5" width="12.2" height="24.65" shape-rendering="crispEdges"/><rect fill="#272727" x="12.2" y="489.5" width="1171.2" height="24.65" shape-rendering="crispEdges"/><rect fill="#272727" x="1183.4" y="489.5" width="12.2" height="24.65" shape-rendering="crispEdges"/><rect fill="#272727" x="0" y="513.9" width="12.2" height="24.65" shape-rendering="crispEdges"/><rect fill="#272727" x="12.2" y="513.9" width="1171.2" height="24.65" shape-rendering="crispEdges"/><rect fill="#272727" x="1183.4" y="513.9" width="12.2" height="24.65" shape-rendering="crispEdges"/><rect fill="#272727" x="0" y="538.3" width="12.2" height="24.65" shape-rendering="crispEdges"/><rect fill="#272727" x="12.2" y="538.3" width="1171.2" height="24.65" shape-rendering="crispEdges"/><rect fill="#272727" x="1183.4" y="538.3" width="12.2" height="24.65" shape-rendering="crispEdges"/><rect fill="#272727" x="0" y="562.7" width="12.2" height="24.65" shape-rendering="crispEdges"/><rect fill="#272727" x="12.2" y="562.7" width="1171.2" height="24.65" shape-rendering="crispEdges"/><rect fill="#272727" x="1183.4" y="562.7" width="12.2" height="24.65" shape-rendering="crispEdges"/><rect fill="#272727" x="0" y="587.1" width="12.2" height="24.65" shape-rendering="crispEdges"/><rect fill="#272727" x="12.2" y="587.1" width="1171.2" height="24.65" shape-rendering="crispEdges"/><rect fill="#272727" x="1183.4" y="587.1" width="12.2" height="24.65" shape-rendering="crispEdges"/><rect fill="#272727" x="0" y="611.5" width="12.2" height="24.65" shape-rendering="crispEdges"/><rect fill="#272727" x="12.2" y="611.5" width="1171.2" height="24.65" shape-rendering="crispEdges"/><rect fill="#272727" x="1183.4" y="611.5" width="12.2" height="24.65" shape-rendering="crispEdges"/><rect fill="#272727" x="0" y="635.9" width="12.2" height="24.65" shape-rendering="crispEdges"/><rect fill="#272727" x="12.2" y="635.9" width="1171.2" height="24.65" shape-rendering="crispEdges"/><rect fill="#272727" x="1183.4" y="635.9" width="12.2" height="24.65" shape-rendering="crispEdges"/><rect fill="#272727" x="0" y="660.3" width="12.2" height="24.65" shape-rendering="crispEdges"/><rect fill="#272727" x="12.2" y="660.3" width="1171.2" height="24.65" shape-rendering="crispEdges"/><rect fill="#272727" x="1183.4" y="660.3" width="12.2" height="24.65" shape-rendering="crispEdges"/><rect fill="#121212" x="0" y="684.7" width="12.2" height="24.65" shape-rendering="crispEdges"/><rect fill="#121212" x="12.2" y="684.7" width="756.4" height="24.65" shape-rendering="crispEdges"/><rect fill="#121212" x="768.6" y="684.7" width="414.8" height="24.65" shape-rendering="crispEdges"/><rect fill="#121212" x="1183.4" y="684.7" width="12.2" height="24.65" shape-rendering="crispEdges"/><rect fill="#1b1b1b" x="0" y="709.1" width="36.6" height="24.65" shape-rendering="crispEdges"/><rect fill="#1b1b1b" x="36.6" y="709.1" width="73.2" height="24.65" shape-rendering="crispEdges"/><rect fill="#1b1b1b" x="109.8" y="709.1" width="36.6" height="24.65" shape-rendering="crispEdges"/><rect fill="#1b1b1b" x="146.4" y="709.1" width="61" height="24.65" shape-rendering="crispEdges"/><rect fill="#1b1b1b" x="207.4" y="709.1" width="36.6" height="24.65" shape-rendering="crispEdges"/><rect fill="#1b1b1b" x="244" y="709.1" width="109.8" height="24.65" shape-rendering="crispEdges"/><rect fill="#1b1b1b" x="353.8" y="709.1" width="36.6" height="24.65" shape-rendering="crispEdges"/><rect fill="#1b1b1b" x="390.4" y="709.1" width="109.8" height="24.65" shape-rendering="crispEdges"/><rect fill="#1b1b1b" x="500.2" y="709.1" width="36.6" height="24.65" shape-rendering="crispEdges"/><rect fill="#1b1b1b" x="536.8" y="709.1" width="97.6" height="24.65" shape-rendering="crispEdges"/><rect fill="#1b1b1b" x="634.4" y="709.1" width="36.6" height="24.65" shape-rendering="crispEdges"/><rect fill="#1b1b1b" x="671" y="709.1" width="48.8" height="24.65" shape-rendering="crispEdges"/><rect fill="#1b1b1b" x="719.8" y="709.1" width="36.6" height="24.65" shape-rendering="crispEdges"/><rect fill="#1b1b1b" x="756.4" y="709.1" width="61" height="24.65" shape-rendering="crispEdges"/><rect fill="#1b1b1b" x="817.4" y="709.1" width="36.6" height="24.65" shape-rendering="crispEdges"/><rect fill="#1b1b1b" x="854" y="709.1" width="85.4" height="24.65" shape-rendering="crispEdges"/><rect fill="#1b1b1b" x="939.4" y="709.1" width="36.6" height="24.65" shape-rendering="crispEdges"/><rect fill="#1b1b1b" x="976" y="709.1" width="73.2" height="24.65" shape-rendering="crispEdges"/><rect fill="#1b1b1b" x="1049.2" y="709.1" width="36.6" height="24.65" shape-rendering="crispEdges"/><rect fill="#1b1b1b" x="1085.8" y="709.1" width="61" height="24.65" shape-rendering="crispEdges"/><rect fill="#1b1b1b" x="1146.8" y="709.1" width="36.6" height="24.65" shape-rendering="crispEdges"/><rect fill="#1b1b1b" x="1183.4" y="709.1" width="12.2" height="24.65" shape-rendering="crispEdges"/>
    <g class="terminal-1915678939-matrix">
    <text class="terminal-1915678939-r2" x="12.2" y="20" textLength="12.2" clip-path="url(#terminal-1915678939-line-0)">⭘</text><text class="terminal-1915678939-r2" x="353.8" y="20" textLength="134.2" clip-path="url(#terminal-1915678939-line-0)">whooing-tui</text><text class="terminal-1915678939-r3" x="488" y="20" textLength="36.6" clip-path="url(#terminal-1915678939-line-0)">&#160;—&#160;</text><text class="terminal-1915678939-r3" x="524.6" y="20" textLength="292.8" clip-path="url(#terminal-1915678939-line-0)">Whooing&#160;가계부&#160;—&#160;v0.81.0</text><text class="terminal-1915678939-r4" x="1085.8" y="20" textLength="97.6" clip-path="url(#terminal-1915678939-line-0)">23:08:30</text><text class="terminal-1915678939-r1" x="1195.6" y="20" textLength="12.2" clip-path="url(#terminal-1915678939-line-0)">
</text><text class="terminal-1915678939-r5" x="12.2" y="44.4" textLength="73.2" clip-path="url(#terminal-1915678939-line-1)">&#160;파일&#160;</text><text class="terminal-1915678939-r6" x="85.4" y="44.4" textLength="366" clip-path="url(#terminal-1915678939-line-1)">&#160;&#160;&#160;입력&#160;&#160;&#160;&#160;화면&#160;&#160;&#160;&#160;도움말&#160;&#160;&#160;&#160;&#160;</text><text class="terminal-1915678939-r7" x="451.4" y="44.4" textLength="61" clip-path="url(#terminal-1915678939-line-1)">(F10)</text><text class="terminal-1915678939-r1" x="1195.6" y="44.4" textLength="12.2" clip-path="url(#terminal-1915678939-line-1)">
</text><text class="terminal-1915678939-r8" x="0" y="68.8" textLength="12.2" clip-path="url(#terminal-1915678939-line-2)">╭</text><text class="terminal-1915678939-r8" x="12.2" y="68.8" textLength="1171.2" clip-path="url(#terminal-1915678939-line-2)">────────────────────────────────────────────────────────────────────────────────────────────────</text><text class="terminal-1915678939-r8" x="1183.4" y="68.8" textLength="12.2" clip-path="url(#terminal-1915678939-line-2)">╮</text><text class="terminal-1915678939-r1" x="1195.6" y="68.8" textLength="12.2" clip-path="url(#terminal-1915678939-line-2)">
</text><text class="terminal-1915678939-r8" x="0" y="93.2" textLength="12.2" clip-path="url(#terminal-1915678939-line-3)">│</text><text class="terminal-1915678939-r9" x="12.2" y="93.2" textLength="146.4" clip-path="url(#terminal-1915678939-line-3)">&#160;date&#160;&#160;&#160;&#160;&#160;&#160;&#160;</text><text class="terminal-1915678939-r9" x="158.6" y="93.2" textLength="109.8" clip-path="url(#terminal-1915678939-line-3)">&#160;money&#160;&#160;&#160;</text><text class="terminal-1915678939-r9" x="268.4" y="93.2" textLength="170.8" clip-path="url(#terminal-1915678939-line-3)">&#160;left&#160;&#160;&#160;&#160;&#160;&#160;&#160;&#160;&#160;</text><text class="terminal-1915678939-r9" x="439.2" y="93.2" textLength="122" clip-path="url(#terminal-1915678939-line-3)">&#160;right&#160;&#160;&#160;&#160;</text><text class="terminal-1915678939-r9" x="561.2" y="93.2" textLength="268.4" clip-path="url(#terminal-1915678939-line-3)">&#160;item&#160;&#160;&#160;&#160;&#160;&#160;&#160;&#160;&#160;&#160;&#160;&#160;&#160;&#160;&#160;&#160;&#160;</text><text class="terminal-1915678939-r9" x="829.6" y="93.2" textLength="73.2" clip-path="url(#terminal-1915678939-line-3)">&#160;memo&#160;</text><text class="terminal-1915678939-r8" x="1183.4" y="93.2" textLength="12.2" clip-path="url(#terminal-1915678939-line-3)">│</text><text class="terminal-1915678939-r1" x="1195.6" y="93.2" textLength="12.2" clip-path="url(#terminal-1915678939-line-3)">
</text><text class="terminal-1915678939-r8" x="0" y="117.6" textLength="12.2" clip-path="url(#terminal-1915678939-line-4)">│</text><text class="terminal-1915678939-r10" x="12.2" y="117.6" textLength="146.4" clip-path="url(#terminal-1915678939-line-4)">&#160;2026-06-07&#160;</text><text class="terminal-1915678939-r10" x="158.6" y="117.6" textLength="109.8" clip-path="url(#terminal-1915678939-line-4)">&#160;&#160;&#160;8,000&#160;</text><text class="terminal-1915678939-r10" x="268.4" y="117.6" textLength="170.8" clip-path="url(#terminal-1915678939-line-4)">&#160;식비&#160;&#160;&#160;&#160;&#160;&#160;&#160;&#160;&#160;</text><text class="terminal-1915678939-r10" x="439.2" y="117.6" textLength="122" clip-path="url(#terminal-1915678939-line-4)">&#160;하나카드&#160;</text><text class="terminal-1915678939-r10" x="561.2" y="117.6" textLength="268.4" clip-path="url(#terminal-1915678939-line-4)">&#160;커피(타이거수지)&#160;&#160;&#160;&#160;&#160;</text><text class="terminal-1915678939-r8" x="1183.4" y="117.6" textLength="12.2" clip-path="url(#terminal-1915678939-line-4)">│</text><text class="terminal-1915678939-r1" x="1195.6" y="117.6" textLength="12.2" clip-path="url(#terminal-1915678939-line-4)">
</text><text class="terminal-1915678939-r8" x="0" y="142" textLength="12.2" clip-path="url(#terminal-1915678939-line-5)">│</text><text class="terminal-1915678939-r2" x="12.2" y="142" textLength="146.4" clip-path="url(#terminal-1915678939-line-5)">&#160;2026-06-07&#160;</text><text class="terminal-1915678939-r2" x="158.6" y="142" textLength="109.8" clip-path="url(#terminal-1915678939-line-5)">&#160;&#160;20,000&#160;</text><text class="terminal-1915678939-r2" x="268.4" y="142" textLength="170.8" clip-path="url(#terminal-1915678939-line-5)">&#160;식비&#160;&#160;&#160;&#160;&#160;&#160;&#160;&#160;&#160;</text><text class="terminal-1915678939-r2" x="439.2" y="142" textLength="122" clip-path="url(#terminal-1915678939-line-5)">&#160;하나카드&#160;</text><text class="terminal-1915678939-r2" x="561.2" y="142" textLength="268.4" clip-path="url(#terminal-1915678939-line-5)">&#160;저녁(닭칼국수)&#160;&#160;&#160;&#160;&#160;&#160;&#160;</text><text class="terminal-1915678939-r8" x="1183.4" y="142" textLength="12.2" clip-path="url(#terminal-1915678939-line-5)">│</text><text class="terminal-1915678939-r1" x="1195.6" y="142" textLength="12.2" clip-path="url(#terminal-1915678939-line-5)">
</text><text class="terminal-1915678939-r8" x="0" y="166.4" textLength="12.2" clip-path="url(#terminal-1915678939-line-6)">│</text><text class="terminal-1915678939-r2" x="12.2" y="166.4" textLength="146.4" clip-path="url(#terminal-1915678939-line-6)">&#160;2026-06-06&#160;</text><text class="terminal-1915678939-r2" x="158.6" y="166.4" textLength="109.8" clip-path="url(#terminal-1915678939-line-6)">&#160;327,000&#160;</text><text class="terminal-1915678939-r2" x="268.4" y="166.4" textLength="170.8" clip-path="url(#terminal-1915678939-line-6)">&#160;공부&#160;&#160;&#160;&#160;&#160;&#160;&#160;&#160;&#160;</text><text class="terminal-1915678939-r2" x="439.2" y="166.4" textLength="122" clip-path="url(#terminal-1915678939-line-6)">&#160;현대카드&#160;</text><text class="terminal-1915678939-r2" x="561.2" y="166.4" textLength="268.4" clip-path="url(#terminal-1915678939-line-6)">&#160;Claude&#160;Max&#160;x20&#160;&#160;&#160;&#160;&#160;&#160;&#160;</text><text class="terminal-1915678939-r8" x="1183.4" y="166.4" textLength="12.2" clip-path="url(#terminal-1915678939-line-6)">│</text><text class="terminal-1915678939-r1" x="1195.6" y="166.4" textLength="12.2" clip-path="url(#terminal-1915678939-line-6)">
</text><text class="terminal-1915678939-r8" x="0" y="190.8" textLength="12.2" clip-path="url(#terminal-1915678939-line-7)">│</text><text class="terminal-1915678939-r2" x="12.2" y="190.8" textLength="146.4" clip-path="url(#terminal-1915678939-line-7)">&#160;2026-06-05&#160;</text><text class="terminal-1915678939-r2" x="158.6" y="190.8" textLength="109.8" clip-path="url(#terminal-1915678939-line-7)">&#160;&#160;30,000&#160;</text><text class="terminal-1915678939-r2" x="268.4" y="190.8" textLength="170.8" clip-path="url(#terminal-1915678939-line-7)">&#160;교통&#160;&#160;&#160;&#160;&#160;&#160;&#160;&#160;&#160;</text><text class="terminal-1915678939-r2" x="439.2" y="190.8" textLength="122" clip-path="url(#terminal-1915678939-line-7)">&#160;현대카드&#160;</text><text class="terminal-1915678939-r2" x="561.2" y="190.8" textLength="268.4" clip-path="url(#terminal-1915678939-line-7)">&#160;교통비(모바일티머니)&#160;</text><text class="terminal-1915678939-r8" x="1183.4" y="190.8" textLength="12.2" clip-path="url(#terminal-1915678939-line-7)">│</text><text class="terminal-1915678939-r1" x="1195.6" y="190.8" textLength="12.2" clip-path="url(#terminal-1915678939-line-7)">
</text><text class="terminal-1915678939-r8" x="0" y="215.2" textLength="12.2" clip-path="url(#terminal-1915678939-line-8)">│</text><text class="terminal-1915678939-r2" x="12.2" y="215.2" textLength="146.4" clip-path="url(#terminal-1915678939-line-8)">&#160;2026-06-05&#160;</text><text class="terminal-1915678939-r2" x="158.6" y="215.2" textLength="109.8" clip-path="url(#terminal-1915678939-line-8)">&#160;&#160;68,000&#160;</text><text class="terminal-1915678939-r2" x="268.4" y="215.2" textLength="170.8" clip-path="url(#terminal-1915678939-line-8)">&#160;공부&#160;&#160;&#160;&#160;&#160;&#160;&#160;&#160;&#160;</text><text class="terminal-1915678939-r2" x="439.2" y="215.2" textLength="122" clip-path="url(#terminal-1915678939-line-8)">&#160;현대카드&#160;</text><text class="terminal-1915678939-r2" x="561.2" y="215.2" textLength="268.4" clip-path="url(#terminal-1915678939-line-8)">&#160;Hetzner&#160;&#160;&#160;&#160;&#160;&#160;&#160;&#160;&#160;&#160;&#160;&#160;&#160;&#160;</text><text class="terminal-1915678939-r8" x="1183.4" y="215.2" textLength="12.2" clip-path="url(#terminal-1915678939-line-8)">│</text><text class="terminal-1915678939-r1" x="1195.6" y="215.2" textLength="12.2" clip-path="url(#terminal-1915678939-line-8)">
</text><text class="terminal-1915678939-r8" x="0" y="239.6" textLength="12.2" clip-path="url(#terminal-1915678939-line-9)">│</text><text class="terminal-1915678939-r2" x="12.2" y="239.6" textLength="146.4" clip-path="url(#terminal-1915678939-line-9)">&#160;2026-06-03&#160;</text><text class="terminal-1915678939-r2" x="158.6" y="239.6" textLength="109.8" clip-path="url(#terminal-1915678939-line-9)">&#160;&#160;16,000&#160;</text><text class="terminal-1915678939-r2" x="268.4" y="239.6" textLength="170.8" clip-path="url(#terminal-1915678939-line-9)">&#160;식비&#160;&#160;&#160;&#160;&#160;&#160;&#160;&#160;&#160;</text><text class="terminal-1915678939-r2" x="439.2" y="239.6" textLength="122" clip-path="url(#terminal-1915678939-line-9)">&#160;하나카드&#160;</text><text class="terminal-1915678939-r2" x="561.2" y="239.6" textLength="268.4" clip-path="url(#terminal-1915678939-line-9)">&#160;점심(공릉동멸치국수)&#160;</text><text class="terminal-1915678939-r8" x="1183.4" y="239.6" textLength="12.2" clip-path="url(#terminal-1915678939-line-9)">│</text><text class="terminal-1915678939-r1" x="1195.6" y="239.6" textLength="12.2" clip-path="url(#terminal-1915678939-line-9)">
</text><text class="terminal-1915678939-r8" x="0" y="264" textLength="12.2" clip-path="url(#terminal-1915678939-line-10)">│</text><text class="terminal-1915678939-r2" x="12.2" y="264" textLength="146.4" clip-path="url(#terminal-1915678939-line-10)">&#160;2026-06-03&#160;</text><text class="terminal-1915678939-r2" x="158.6" y="264" textLength="109.8" clip-path="url(#terminal-1915678939-line-10)">&#160;&#160;20,500&#160;</text><text class="terminal-1915678939-r2" x="268.4" y="264" textLength="170.8" clip-path="url(#terminal-1915678939-line-10)">&#160;식비&#160;&#160;&#160;&#160;&#160;&#160;&#160;&#160;&#160;</text><text class="terminal-1915678939-r2" x="439.2" y="264" textLength="122" clip-path="url(#terminal-1915678939-line-10)">&#160;하나카드&#160;</text><text class="terminal-1915678939-r2" x="561.2" y="264" textLength="268.4" clip-path="url(#terminal-1915678939-line-10)">&#160;저녁(써브웨이)&#160;&#160;&#160;&#160;&#160;&#160;&#160;</text><text class="terminal-1915678939-r8" x="1183.4" y="264" textLength="12.2" clip-path="url(#terminal-1915678939-line-10)">│</text><text class="terminal-1915678939-r1" x="1195.6" y="264" textLength="12.2" clip-path="url(#terminal-1915678939-line-10)">
</text><text class="terminal-1915678939-r8" x="0" y="288.4" textLength="12.2" clip-path="url(#terminal-1915678939-line-11)">│</text><text class="terminal-1915678939-r8" x="1183.4" y="288.4" textLength="12.2" clip-path="url(#terminal-1915678939-line-11)">│</text><text class="terminal-1915678939-r1" x="1195.6" y="288.4" textLength="12.2" clip-path="url(#terminal-1915678939-line-11)">
</text><text class="terminal-1915678939-r8" x="0" y="312.8" textLength="12.2" clip-path="url(#terminal-1915678939-line-12)">│</text><text class="terminal-1915678939-r8" x="1183.4" y="312.8" textLength="12.2" clip-path="url(#terminal-1915678939-line-12)">│</text><text class="terminal-1915678939-r1" x="1195.6" y="312.8" textLength="12.2" clip-path="url(#terminal-1915678939-line-12)">
</text><text class="terminal-1915678939-r8" x="0" y="337.2" textLength="12.2" clip-path="url(#terminal-1915678939-line-13)">│</text><text class="terminal-1915678939-r8" x="1183.4" y="337.2" textLength="12.2" clip-path="url(#terminal-1915678939-line-13)">│</text><text class="terminal-1915678939-r1" x="1195.6" y="337.2" textLength="12.2" clip-path="url(#terminal-1915678939-line-13)">
</text><text class="terminal-1915678939-r8" x="0" y="361.6" textLength="12.2" clip-path="url(#terminal-1915678939-line-14)">│</text><text class="terminal-1915678939-r8" x="1183.4" y="361.6" textLength="12.2" clip-path="url(#terminal-1915678939-line-14)">│</text><text class="terminal-1915678939-r1" x="1195.6" y="361.6" textLength="12.2" clip-path="url(#terminal-1915678939-line-14)">
</text><text class="terminal-1915678939-r8" x="0" y="386" textLength="12.2" clip-path="url(#terminal-1915678939-line-15)">│</text><text class="terminal-1915678939-r8" x="1183.4" y="386" textLength="12.2" clip-path="url(#terminal-1915678939-line-15)">│</text><text class="terminal-1915678939-r1" x="1195.6" y="386" textLength="12.2" clip-path="url(#terminal-1915678939-line-15)">
</text><text class="terminal-1915678939-r8" x="0" y="410.4" textLength="12.2" clip-path="url(#terminal-1915678939-line-16)">│</text><text class="terminal-1915678939-r8" x="1183.4" y="410.4" textLength="12.2" clip-path="url(#terminal-1915678939-line-16)">│</text><text class="terminal-1915678939-r1" x="1195.6" y="410.4" textLength="12.2" clip-path="url(#terminal-1915678939-line-16)">
</text><text class="terminal-1915678939-r8" x="0" y="434.8" textLength="12.2" clip-path="url(#terminal-1915678939-line-17)">│</text><text class="terminal-1915678939-r8" x="1183.4" y="434.8" textLength="12.2" clip-path="url(#terminal-1915678939-line-17)">│</text><text class="terminal-1915678939-r1" x="1195.6" y="434.8" textLength="12.2" clip-path="url(#terminal-1915678939-line-17)">
</text><text class="terminal-1915678939-r8" x="0" y="459.2" textLength="12.2" clip-path="url(#terminal-1915678939-line-18)">│</text><text class="terminal-1915678939-r8" x="1183.4" y="459.2" textLength="12.2" clip-path="url(#terminal-1915678939-line-18)">│</text><text class="terminal-1915678939-r1" x="1195.6" y="459.2" textLength="12.2" clip-path="url(#terminal-1915678939-line-18)">
</text><text class="terminal-1915678939-r8" x="0" y="483.6" textLength="12.2" clip-path="url(#terminal-1915678939-line-19)">│</text><text class="terminal-1915678939-r8" x="1183.4" y="483.6" textLength="12.2" clip-path="url(#terminal-1915678939-line-19)">│</text><text class="terminal-1915678939-r1" x="1195.6" y="483.6" textLength="12.2" clip-path="url(#terminal-1915678939-line-19)">
</text><text class="terminal-1915678939-r8" x="0" y="508" textLength="12.2" clip-path="url(#terminal-1915678939-line-20)">│</text><text class="terminal-1915678939-r8" x="1183.4" y="508" textLength="12.2" clip-path="url(#terminal-1915678939-line-20)">│</text><text class="terminal-1915678939-r1" x="1195.6" y="508" textLength="12.2" clip-path="url(#terminal-1915678939-line-20)">
</text><text class="terminal-1915678939-r8" x="0" y="532.4" textLength="12.2" clip-path="url(#terminal-1915678939-line-21)">│</text><text class="terminal-1915678939-r8" x="1183.4" y="532.4" textLength="12.2" clip-path="url(#terminal-1915678939-line-21)">│</text><text class="terminal-1915678939-r1" x="1195.6" y="532.4" textLength="12.2" clip-path="url(#terminal-1915678939-line-21)">
</text><text class="terminal-1915678939-r8" x="0" y="556.8" textLength="12.2" clip-path="url(#terminal-1915678939-line-22)">│</text><text class="terminal-1915678939-r8" x="1183.4" y="556.8" textLength="12.2" clip-path="url(#terminal-1915678939-line-22)">│</text><text class="terminal-1915678939-r1" x="1195.6" y="556.8" textLength="12.2" clip-path="url(#terminal-1915678939-line-22)">
</text><text class="terminal-1915678939-r8" x="0" y="581.2" textLength="12.2" clip-path="url(#terminal-1915678939-line-23)">│</text><text class="terminal-1915678939-r8" x="1183.4" y="581.2" textLength="12.2" clip-path="url(#terminal-1915678939-line-23)">│</text><text class="terminal-1915678939-r1" x="1195.6" y="581.2" textLength="12.2" clip-path="url(#terminal-1915678939-line-23)">
</text><text class="terminal-1915678939-r8" x="0" y="605.6" textLength="12.2" clip-path="url(#terminal-1915678939-line-24)">│</text><text class="terminal-1915678939-r8" x="1183.4" y="605.6" textLength="12.2" clip-path="url(#terminal-1915678939-line-24)">│</text><text class="terminal-1915678939-r1" x="1195.6" y="605.6" textLength="12.2" clip-path="url(#terminal-1915678939-line-24)">
</text><text class="terminal-1915678939-r8" x="0" y="630" textLength="12.2" clip-path="url(#terminal-1915678939-line-25)">│</text><text class="terminal-1915678939-r8" x="1183.4" y="630" textLength="12.2" clip-path="url(#terminal-1915678939-line-25)">│</text><text class="terminal-1915678939-r1" x="1195.6" y="630" textLength="12.2" clip-path="url(#terminal-1915678939-line-25)">
</text><text class="terminal-1915678939-r8" x="0" y="654.4" textLength="12.2" clip-path="url(#terminal-1915678939-line-26)">│</text><text class="terminal-1915678939-r8" x="1183.4" y="654.4" textLength="12.2" clip-path="url(#terminal-1915678939-line-26)">│</text><text class="terminal-1915678939-r1" x="1195.6" y="654.4" textLength="12.2" clip-path="url(#terminal-1915678939-line-26)">
</text><text class="terminal-1915678939-r8" x="0" y="678.8" textLength="12.2" clip-path="url(#terminal-1915678939-line-27)">╰</text><text class="terminal-1915678939-r8" x="12.2" y="678.8" textLength="1171.2" clip-path="url(#terminal-1915678939-line-27)">────────────────────────────────────────────────────────────────────────────────────────────────</text><text class="terminal-1915678939-r8" x="1183.4" y="678.8" textLength="12.2" clip-path="url(#terminal-1915678939-line-27)">╯</text><text class="terminal-1915678939-r1" x="1195.6" y="678.8" textLength="12.2" clip-path="url(#terminal-1915678939-line-27)">
</text><text class="terminal-1915678939-r11" x="12.2" y="703.2" textLength="756.4" clip-path="url(#terminal-1915678939-line-28)">7건&#160;표시&#160;(20260509&#160;~&#160;20260607,&#160;최근&#160;30일,&#160;section=가계부&#160;(s1))</text><text class="terminal-1915678939-r1" x="1195.6" y="703.2" textLength="12.2" clip-path="url(#terminal-1915678939-line-28)">
</text><text class="terminal-1915678939-r12" x="0" y="727.6" textLength="36.6" clip-path="url(#terminal-1915678939-line-29)">&#160;⏎&#160;</text><text class="terminal-1915678939-r2" x="36.6" y="727.6" textLength="73.2" clip-path="url(#terminal-1915678939-line-29)">Enter&#160;</text><text class="terminal-1915678939-r12" x="109.8" y="727.6" textLength="36.6" clip-path="url(#terminal-1915678939-line-29)">&#160;q&#160;</text><text class="terminal-1915678939-r2" x="146.4" y="727.6" textLength="61" clip-path="url(#terminal-1915678939-line-29)">Quit&#160;</text><text class="terminal-1915678939-r12" x="207.4" y="727.6" textLength="36.6" clip-path="url(#terminal-1915678939-line-29)">&#160;s&#160;</text><text class="terminal-1915678939-r2" x="244" y="727.6" textLength="109.8" clip-path="url(#terminal-1915678939-line-29)">Sections&#160;</text><text class="terminal-1915678939-r12" x="353.8" y="727.6" textLength="36.6" clip-path="url(#terminal-1915678939-line-29)">&#160;a&#160;</text><text class="terminal-1915678939-r2" x="390.4" y="727.6" textLength="109.8" clip-path="url(#terminal-1915678939-line-29)">Accounts&#160;</text><text class="terminal-1915678939-r12" x="500.2" y="727.6" textLength="36.6" clip-path="url(#terminal-1915678939-line-29)">&#160;t&#160;</text><text class="terminal-1915678939-r2" x="536.8" y="727.6" textLength="97.6" clip-path="url(#terminal-1915678939-line-29)">Reports&#160;</text><text class="terminal-1915678939-r12" x="634.4" y="727.6" textLength="36.6" clip-path="url(#terminal-1915678939-line-29)">&#160;n&#160;</text><text class="terminal-1915678939-r2" x="671" y="727.6" textLength="48.8" clip-path="url(#terminal-1915678939-line-29)">New&#160;</text><text class="terminal-1915678939-r12" x="719.8" y="727.6" textLength="36.6" clip-path="url(#terminal-1915678939-line-29)">&#160;e&#160;</text><text class="terminal-1915678939-r2" x="756.4" y="727.6" textLength="61" clip-path="url(#terminal-1915678939-line-29)">Edit&#160;</text><text class="terminal-1915678939-r12" x="817.4" y="727.6" textLength="36.6" clip-path="url(#terminal-1915678939-line-29)">&#160;d&#160;</text><text class="terminal-1915678939-r2" x="854" y="727.6" textLength="85.4" clip-path="url(#terminal-1915678939-line-29)">Delete&#160;</text><text class="terminal-1915678939-r12" x="939.4" y="727.6" textLength="36.6" clip-path="url(#terminal-1915678939-line-29)">&#160;f&#160;</text><text class="terminal-1915678939-r2" x="976" y="727.6" textLength="73.2" clip-path="url(#terminal-1915678939-line-29)">Files&#160;</text><text class="terminal-1915678939-r12" x="1049.2" y="727.6" textLength="36.6" clip-path="url(#terminal-1915678939-line-29)">&#160;m&#160;</text><text class="terminal-1915678939-r2" x="1085.8" y="727.6" textLength="61" clip-path="url(#terminal-1915678939-line-29)">Menu&#160;</text><text class="terminal-1915678939-r12" x="1146.8" y="727.6" textLength="36.6" clip-path="url(#terminal-1915678939-line-29)">&#160;H&#160;</text><text class="terminal-1915678939-r2" x="1183.4" y="727.6" textLength="12.2" clip-path="url(#terminal-1915678939-line-29)">H</text>
    </g>
    </g>
</svg>
